:SAMPLES-PER-SECOND 30
:FRAME-RANGE 1-3535
:FULLY-SPECIFIED
:DEGREES
2541
root  -13.022 38.9169 -29.3134 7.6731 6.43048 1.40753
RightUpLeg  -23.8012 -4.52265 -1.28604
RightLeg  28.7002 -5.6011 -3.54125
RightFoot  -9.92821 -0.123482 4.54204
RightToes  5.38503e-012 1.26228e-014 -6.01869e-014
Spine  0.0421876 -1.79868 -2.56416
Spine1  5.17401 -2.08804 1.11173
HEad  -8.7282 -34.9508 7.3765
LeftShoulder1  2.45572 -8.49753 -14.1372
LeftArm  42.5095 -37.115 -88.0228
LeftForeArm  19.5202 -48.956 -11.4272
LeftHand  -0.170842 2.88199 7.66061
RightShoulder  1.77806 4.06921 17.5851
RightArm  -44.2016 38.8832 30.5298
RightForeArm  67.6271 69.3661 22.1034
RightHand  0.890458 -9.13364 -27.2716
LeftUpLeg  -10.8302 -5.6923 9.53739
LeftLeg  23.8015 -0.538461 0.0829224
LeftFoot  -17.988 -0.255466 -6.25013
LeftToes  8.9788e-011 3.29689e-010 2.1201e-011
2542
root  -12.7504 38.8841 -29.4614 7.10596 6.66876 0.682159
RightUpLeg  -23.3911 -4.86572 -0.992412
RightLeg  28.5745 -5.43513 -3.42755
RightFoot  -9.60016 -0.136811 4.70818
RightToes  5.38503e-012 1.26228e-014 -6.01869e-014
Spine  0.0119985 -1.75135 -2.59837
Spine1  5.2277 -2.02674 1.06196
HEad  -8.45721 -35.1475 7.7588
LeftShoulder1  2.45769 -8.53303 -14.0868
LeftArm  42.3073 -37.6468 -87.849
LeftForeArm  19.7382 -48.9265 -11.3975
LeftHand  -0.174976 2.80827 7.62281
RightShoulder  1.78658 4.03923 17.818
RightArm  -44.4628 38.7026 30.4593
RightForeArm  68.6351 69.9192 22.7827
RightHand  0.920233 -9.24492 -27.3564
LeftUpLeg  -10.954 -6.29188 10.3154
LeftLeg  24.5536 -0.248475 0.219727
LeftFoot  -19.1045 -0.282743 -5.85035
LeftToes  8.9788e-011 3.29689e-010 2.1201e-011
2543
root  -12.4215 38.8218 -29.6501 6.45642 6.68585 -0.140778
RightUpLeg  -23.0971 -5.12796 -0.71565
RightLeg  28.6482 -5.09582 -3.2382
RightFoot  -9.29718 -0.158912 5.08462
RightToes  5.38503e-012 1.26228e-014 -6.01869e-014
Spine  0.0214254 -1.70666 -2.57979
Spine1  5.28429 -1.95267 0.948868
HEad  -8.18591 -35.2744 8.03856
LeftShoulder1  2.41548 -8.45513 -13.8433
LeftArm  42.0742 -38.1352 -87.7599
LeftForeArm  19.6144 -48.9837 -11.432
LeftHand  -0.178629 2.80441 7.59428
RightShoulder  1.82369 4.15173 17.963
RightArm  -44.6384 38.5627 30.6173
RightForeArm  69.2204 70.2362 23.1914
RightHand  0.953209 -9.28968 -27.952
LeftUpLeg  -10.986 -6.76929 11.2833
LeftLeg  25.4617 -0.187366 0.247553
LeftFoot  -19.6967 -0.307823 -5.82626
LeftToes  8.9788e-011 3.29689e-010 2.1201e-011
2544
root  -12.0209 38.7651 -29.8837 5.7688 6.58661 -1.17421
RightUpLeg  -22.6983 -5.3734 -0.330611
RightLeg  28.3835 -4.73584 -2.99705
RightFoot  -8.77885 -0.182857 5.50237
RightToes  5.38503e-012 1.26228e-014 -6.01869e-014
Spine  -0.564281 -1.43484 -2.67793
Spine1  6.18653 -1.81528 1.57043
HEad  -8.10366 -35.6231 8.1419
LeftShoulder1  2.49055 -8.69151 -14.0861
LeftArm  42.136 -39.0035 -87.6737
LeftForeArm  19.3549 -48.9189 -11.4238
LeftHand  -0.180699 2.75517 7.57296
RightShoulder  1.79877 4.11989 17.711
RightArm  -44.9525 38.4744 30.5689
RightForeArm  69.6032 70.6217 23.7543
RightHand  0.952529 -9.27227 -28.0489
LeftUpLeg  -10.9637 -7.44732 12.4462
LeftLeg  26.483 -0.0533005 0.316814
LeftFoot  -20.3929 -0.274425 -5.00893
LeftToes  8.9788e-011 3.29689e-010 2.1201e-011
